<!DOCTYPE svg PUBLIC "-//W3C//DTD SVG 1.1//EN" "http://www.w3.org/Graphics/SVG/1.1/DTD/svg11.dtd">
<!-- Uploaded to: SVG Repo, www.svgrepo.com, Transformed by: SVG Repo Mixer Tools -->
<svg fill="#000000" height="800px" width="800px" version="1.1" id="Layer_1" xmlns="http://www.w3.org/2000/svg" xmlns:xlink="http://www.w3.org/1999/xlink" viewBox="0 0 511.999 511.999" xml:space="preserve">
<g id="SVGRepo_bgCarrier" stroke-width="0"/>
<g id="SVGRepo_tracerCarrier" stroke-linecap="round" stroke-linejoin="round"/>
<g id="SVGRepo_iconCarrier"> <g> <g> <path d="M437.151,273.237l56.516-97.89c3.881-6.721,3.881-15.001,0-21.721l-32.985-57.133 c6.608-9.853,10.468-21.695,10.468-34.424C471.151,27.896,443.35,0,409.178,0c-24.344,0-45.443,14.213-55.572,34.486h-65.962 c-7.76,0-14.931,4.46-18.811,11.181l-59.408,103.219h-51.84c-8.82-24.618-31.503-40.477-58.035-40.477 c-3.477,0-6.883,0.19-10.205,0.741l-33.39-57.886c-6-10.39-19.284-13.976-29.672-7.979c-10.39,5.998-13.949,19.268-7.95,29.657 l33.397,57.84c-8.839,10.714-14.155,24.435-14.155,39.377s5.316,28.664,14.155,39.378l-33.397,57.848 c-3.881,6.721-3.881,15.001,0,21.721l33.751,58.458c-10.087,11.027-16.252,25.699-16.252,41.788 c0,14.142,4.771,27.185,12.775,37.626l-30.274,52.435c-5.999,10.389-2.44,23.673,7.95,29.671c3.42,1.975,7.155,2.914,10.84,2.914 c7.507,0,14.808-3.895,18.831-10.864l10.449-18.1l19.027-32.956c4,0.814,8.138,1.264,12.374,1.264 c27.657,0,51.134-18.633,59.084-43.25h67.468c7.76,0,14.931-4.162,18.811-10.882l35.711-61.863c2.621,0.339,5.286,0.29,7.998,0.29 c26.532,0,49.215-15.878,58.035-40.496h54.999l52.997,92.035l3.137,5.551c5.999,10.39,19.283,14.007,29.671,8.009 c10.39-5.998,13.949-19.252,7.95-29.643L437.151,273.237z M99.548,151.626c10.219,0,18.531,8.312,18.531,18.53 c0,10.218-8.312,18.531-18.531,18.531c-10.218,0-18.53-8.314-18.53-18.531C81.018,159.938,89.33,151.626,99.548,151.626z M97.806,407.882c-10.219,0-18.531-8.313-18.531-18.531s8.312-18.531,18.531-18.531c10.219,0,18.531,8.313,18.531,18.531 S108.025,407.882,97.806,407.882z M211.817,364.652h-57.204c-9.572-21.721-31.427-37.255-56.807-37.255 c-2.36,0-4.688,0.135-6.981,0.394l-28.6-49.541l27.118-46.975c3.322,0.553,6.728,1.08,10.205,1.08 c26.532,0,49.215-16.857,58.035-40.027h54.233l25.731,44.339c-7.925,10.412-12.642,23.278-12.642,37.343 c0,15.729,5.901,30.064,15.592,41.004L211.817,364.652z M409.178,43.537c10.218,0,18.53,8.312,18.53,18.53 c0,10.218-8.312,18.531-18.53,18.531c-10.219,0-18.531-8.314-18.531-18.531C390.647,51.849,398.96,43.537,409.178,43.537z M286.876,292.43c-10.218,0-18.53-8.313-18.53-18.531s8.312-18.53,18.53-18.53c10.219,0,18.531,8.312,18.531,18.53 S297.095,292.43,286.876,292.43z M344.387,250.254c-9.166-21.721-31.483-38.626-57.513-38.626c-2.987,0-5.924,0.375-8.8,0.786 l-27.757-48.096l49.865-86.386h49.141v-0.003c7.091,26.066,31.231,46.018,59.854,46.018c5.542,0,10.911-0.695,16.026-2.065 l24.57,42.281l-49.864,86.091H344.387z"/> </g> </g> </g>
</svg>